<?xml version="1.0" encoding="UTF-8" standalone="yes"?><svg xmlns="http://www.w3.org/2000/svg" xmlns:xlink="http://www.w3.org/1999/xlink" height="364pt" style="width:1069px;height:364px;" version="1.1" viewBox="0 0 1069 364" width="1069pt"><defs><filter height="300%" id="f1" width="300%" x="-1" y="-1"><feGaussianBlur result="blurOut" stdDeviation="2.0"/><feColorMatrix in="blurOut" result="blurOut2" type="matrix" values="0 0 0 0 0 0 0 0 0 0 0 0 0 0 0 0 0 0 .4 0"/><feOffset dx="4.0" dy="4.0" in="blurOut2" result="blurOut3"/><feBlend in="SourceGraphic" in2="blurOut3" mode="normal"/></filter></defs><g><ellipse cx="577" cy="18.5" fill="#FEFECE" filter="url(#f1)" rx="8" ry="8" style="stroke: #A80036; stroke-width: 2.0;"/><path d="M577,26.5 L577,53.5 M564,34.5 L590,34.5 M577,53.5 L564,68.5 M577,53.5 L590,68.5 " fill="#FEFECE" filter="url(#f1)" style="stroke: #A80036; stroke-width: 2.0;"/><text fill="#000000" font-family="sans-serif" font-size="14" lengthAdjust="spacingAndGlyphs" textLength="112" x="521" y="89.0352">Visiteur Identifié</text><ellipse cx="171.25" cy="18.5" fill="#FEFECE" filter="url(#f1)" rx="8" ry="8" style="stroke: #A80036; stroke-width: 2.0;"/><path d="M171.25,26.5 L171.25,53.5 M158.25,34.5 L184.25,34.5 M171.25,53.5 L158.25,68.5 M171.25,53.5 L184.25,68.5 " fill="#FEFECE" filter="url(#f1)" style="stroke: #A80036; stroke-width: 2.0;"/><text fill="#000000" font-family="sans-serif" font-size="14" lengthAdjust="spacingAndGlyphs" textLength="121" x="110.75" y="89.0352">Visiteur Anonyme</text><ellipse cx="974.0362" cy="199.1342" fill="#FEFECE" filter="url(#f1)" rx="88.2862" ry="24.6342" style="stroke: #A80036; stroke-width: 1.5;"/><text fill="#000000" font-family="sans-serif" font-size="14" lengthAdjust="spacingAndGlyphs" textLength="130" x="909.0362" y="198.1162">Ajout/modification</text><text fill="#000000" font-family="sans-serif" font-size="14" lengthAdjust="spacingAndGlyphs" textLength="82" x="933.0362" y="214.6045">d'un voyage</text><ellipse cx="762.0849" cy="199.0831" fill="#FEFECE" filter="url(#f1)" rx="88.0849" ry="24.5831" style="stroke: #A80036; stroke-width: 1.5;"/><text fill="#000000" font-family="sans-serif" font-size="14" lengthAdjust="spacingAndGlyphs" textLength="130" x="697.0849" y="198.1442">Ajout/modification</text><text fill="#000000" font-family="sans-serif" font-size="14" lengthAdjust="spacingAndGlyphs" textLength="80" x="722.0849" y="214.6325">d'une étape</text><ellipse cx="762.1564" cy="331.7813" fill="#FEFECE" filter="url(#f1)" rx="114.4064" ry="25.2813" style="stroke: #A80036; stroke-width: 1.5;"/><text fill="#000000" font-family="sans-serif" font-size="14" lengthAdjust="spacingAndGlyphs" textLength="207" x="658.6564" y="336.5254">Identification/Authentification</text><ellipse cx="766.412" cy="49.8755" fill="#FEFECE" filter="url(#f1)" rx="84.662" ry="23.8755" style="stroke: #A80036; stroke-width: 1.5;"/><text fill="#000000" font-family="sans-serif" font-size="14" lengthAdjust="spacingAndGlyphs" textLength="129" x="701.912" y="50.0606">Ajout/Suppression</text><text fill="#000000" font-family="sans-serif" font-size="14" lengthAdjust="spacingAndGlyphs" textLength="42" x="745.412" y="66.5488">média</text><ellipse cx="544.0812" cy="198.7662" fill="#FEFECE" filter="url(#f1)" rx="94.3312" ry="21.2662" style="stroke: #A80036; stroke-width: 1.5;"/><text fill="#000000" font-family="sans-serif" font-size="14" lengthAdjust="spacingAndGlyphs" textLength="163" x="462.5812" y="203.5104">Annotation d'un voyage</text><ellipse cx="282.2494" cy="198.8499" fill="#FEFECE" filter="url(#f1)" rx="132.2494" ry="28.8499" style="stroke: #A80036; stroke-width: 1.5;"/><text fill="#000000" font-family="sans-serif" font-size="14" lengthAdjust="spacingAndGlyphs" textLength="245" x="159.7494" y="203.594">Visualisation de voyages et d'étapes</text><ellipse cx="60.3688" cy="199.159" fill="#FEFECE" filter="url(#f1)" rx="54.6188" ry="14.659" style="stroke: #A80036; stroke-width: 1.5;"/><text fill="#000000" font-family="sans-serif" font-size="14" lengthAdjust="spacingAndGlyphs" textLength="73" x="23.8688" y="203.9031">Inscription</text><ellipse cx="974.2222" cy="49.8269" fill="#FEFECE" filter="url(#f1)" rx="84.4722" ry="23.8269" style="stroke: #A80036; stroke-width: 1.5;"/><text fill="#000000" font-family="sans-serif" font-size="14" lengthAdjust="spacingAndGlyphs" textLength="129" x="909.7222" y="50.0913">Ajout/Suppression</text><text fill="#000000" font-family="sans-serif" font-size="14" lengthAdjust="spacingAndGlyphs" textLength="38" x="955.2222" y="66.5796">étape</text><path d="M633.326,82.671 C667.936,101.199 713.624,124.015 756,140 C759.672,141.385 844.245,163.783 906.949,180.332 " fill="none" style="stroke: #A80036; stroke-width: 1.0;"/><polygon fill="#A80036" points="911.803,181.613,904.1215,175.449,906.9685,180.3372,902.0803,183.1842,911.803,181.613" style="stroke: #A80036; stroke-width: 1.0;"/><path d="M601.032,91.633 C612.248,108.147 626.722,126.48 643,140 C661.327,155.222 684.324,167.626 705.203,176.999 " fill="none" style="stroke: #A80036; stroke-width: 1.0;"/><polygon fill="#A80036" points="709.901,179.074,703.2839,171.7792,705.3271,177.0542,700.0522,179.0974,709.901,179.074" style="stroke: #A80036; stroke-width: 1.0;"/><path d="M520.818,78.996 C468.566,105.033 391.107,143.631 338.692,169.75 " fill="none" style="stroke: #A80036; stroke-width: 1.0;"/><polygon fill="#A80036" points="334.016,172.08,343.8553,171.6454,338.491,169.8496,340.2867,164.4854,334.016,172.08" style="stroke: #A80036; stroke-width: 1.0;"/><path d="M567.895,91.558 C562.102,117.363 554.776,149.999 549.772,172.287 " fill="none" style="stroke: #A80036; stroke-width: 1.0;"/><polygon fill="#A80036" points="548.616,177.439,554.491,169.5343,549.7117,172.5605,546.6855,167.7812,548.616,177.439" style="stroke: #A80036; stroke-width: 1.0;"/><path d="M201.625,91.558 C219.386,115.078 241.432,144.274 257.94,166.137 " fill="none" style="stroke: #A80036; stroke-width: 1.0;"/><polygon fill="#A80036" points="260.956,170.13,258.7226,160.5377,257.9421,166.1405,252.3393,165.36,260.956,170.13" style="stroke: #A80036; stroke-width: 1.0;"/><path d="M140.375,91.558 C118.356,120.717 89.7518,158.599 73.2777,180.416 " fill="none" style="stroke: #A80036; stroke-width: 1.0;"/><polygon fill="#A80036" points="70.1502,184.558,78.7656,179.7857,73.1631,180.5677,72.3811,174.9651,70.1502,184.558" style="stroke: #A80036; stroke-width: 1.0;"/><path d="M974,74.293 C974,100.053 974,141.574 974,169.317 " fill="none" style="stroke: #A80036; stroke-width: 1.0; stroke-dasharray: 7.0,7.0;"/><polygon fill="#A80036" points="974,174.33,978,165.33,974,169.33,970,165.33,974,174.33" style="stroke: #A80036; stroke-width: 1.0;"/><text fill="#000000" font-family="sans-serif" font-size="13" lengthAdjust="spacingAndGlyphs" textLength="50" x="975" y="135.5684">extends</text><path d="M796.691,72.69 C834.525,99.429 898.696,144.78 938.582,172.969 " fill="none" style="stroke: #A80036; stroke-width: 1.0; stroke-dasharray: 7.0,7.0;"/><polygon fill="#A80036" points="942.843,175.98,937.8027,167.5186,938.7601,173.0938,933.1849,174.0512,942.843,175.98" style="stroke: #A80036; stroke-width: 1.0;"/><text fill="#000000" font-family="sans-serif" font-size="13" lengthAdjust="spacingAndGlyphs" textLength="50" x="890" y="135.5684">extends</text><path d="M765.366,74.293 C764.665,100.053 763.535,141.574 762.78,169.317 " fill="none" style="stroke: #A80036; stroke-width: 1.0; stroke-dasharray: 7.0,7.0;"/><polygon fill="#A80036" points="762.644,174.33,766.8868,165.4419,762.7797,169.3318,758.8897,165.2248,762.644,174.33" style="stroke: #A80036; stroke-width: 1.0;"/><text fill="#000000" font-family="sans-serif" font-size="13" lengthAdjust="spacingAndGlyphs" textLength="50" x="765" y="135.5684">extends</text><path d="M762,223.723 C762,245.384 762,277.5068 762,300.9539 " fill="none" style="stroke: #A80036; stroke-width: 1.0; stroke-dasharray: 7.0,7.0;"/><polygon fill="#A80036" points="762,306.1167,766,297.1167,762,301.1167,758,297.1167,762,306.1167" style="stroke: #A80036; stroke-width: 1.0;"/><text fill="#000000" font-family="sans-serif" font-size="13" lengthAdjust="spacingAndGlyphs" textLength="46" x="763" y="271.5684">include</text><path d="M938.993,221.632 C902.038,244.467 843.778,280.4676 804.283,304.8726 " fill="none" style="stroke: #A80036; stroke-width: 1.0; stroke-dasharray: 7.0,7.0;"/><polygon fill="#A80036" points="799.562,307.7896,809.3208,306.4609,803.8153,305.1611,805.1152,299.6556,799.562,307.7896" style="stroke: #A80036; stroke-width: 1.0;"/><text fill="#000000" font-family="sans-serif" font-size="13" lengthAdjust="spacingAndGlyphs" textLength="46" x="876" y="271.5684">include</text><path d="M576.167,219.33 C613.991,242.059 676.932,279.8811 718.939,305.1241 " fill="none" style="stroke: #A80036; stroke-width: 1.0; stroke-dasharray: 7.0,7.0;"/><polygon fill="#A80036" points="723.446,307.832,717.7925,299.7674,719.1604,305.2564,713.6715,306.6243,723.446,307.832" style="stroke: #A80036; stroke-width: 1.0;"/><text fill="#000000" font-family="sans-serif" font-size="13" lengthAdjust="spacingAndGlyphs" textLength="46" x="668" y="271.5684">include</text></g></svg>